<svg width="167" height="60" viewBox="0 0 167 60" fill="none" xmlns="http://www.w3.org/2000/svg">
<path fill-rule="evenodd" clip-rule="evenodd" d="M62.6489 7.63422C61.3139 28.1551 52.3109 45.7381 35.7829 57.1659C34.5738 58.0033 33.3249 58.8061 32.0339 59.5742C31.7946 59.7188 31.5532 59.8594 31.3118 60C26.5511 57.2393 22.3257 54.0202 18.6418 50.4038C16.3623 48.1667 14.2884 45.7768 12.4244 43.2504C5.02518 33.2385 0.873214 21.0649 0 7.63422C19.5717 -2.54474 43.0792 -2.54474 62.6489 7.63422Z" fill="url(#paint0_linear_145_6590)"/>
<path opacity="0.2" fill-rule="evenodd" clip-rule="evenodd" d="M43.9146 4.83691C43.7698 4.9123 40.4176 6.66041 36.1271 9.85916C35.3399 10.4459 34.5192 11.0836 33.6817 11.7682C30.8962 14.044 27.9176 16.8495 25.2665 20.1318C22.7203 23.2776 20.4743 26.8635 18.9861 30.8446C16.8366 36.586 16.2636 43.1506 18.6418 50.4038C16.3622 48.1667 14.2883 45.7768 12.4244 43.2504C12.099 36.8081 13.4466 29.7179 18.2283 22.9475C18.8958 22.0022 19.6305 21.0629 20.4365 20.1318C20.9991 19.4839 21.5952 18.8381 22.2291 18.2004C23.2304 17.1898 24.3219 16.1935 25.5121 15.2135C27.1116 13.8932 28.8874 12.6056 30.8563 11.3546C32.0339 10.6069 33.2807 9.87138 34.6011 9.15217C36.3895 8.17828 38.3101 7.23088 40.3714 6.31812L36.1334 6.88248L43.9146 4.83691Z" fill="white"/>
<path opacity="0.2" fill-rule="evenodd" clip-rule="evenodd" d="M48.984 9.16841L49.578 7.02912C47.3782 9.15007 43.8014 12.8887 40.4198 17.7256C40.3862 17.7704 40.3547 17.8173 40.3232 17.8621C40.191 18.0495 40.0566 18.241 39.9244 18.4346C35.6171 24.7628 31.7506 32.8392 31.6163 41.5634C31.5428 46.4573 32.6427 51.5549 35.4996 56.6627C35.5898 56.8298 35.6822 56.9969 35.7829 57.166C34.5739 58.0033 33.3249 58.8061 32.034 59.5742C32.0067 59.5334 31.971 59.4784 31.929 59.4132C31.018 57.9626 26.7884 50.6829 27.0529 40.8259C27.2166 34.6667 29.1352 27.5052 34.7103 20.1318C35.5583 19.0091 36.4924 17.8825 37.5189 16.7517C37.7204 16.5296 37.9261 16.3055 38.136 16.0814C38.2829 15.9265 38.4341 15.7656 38.5873 15.6107C38.9924 15.189 39.4101 14.7672 39.8425 14.3435C43.0184 11.2445 46.9143 8.14562 51.6729 5.10579L51.738 5.05078L48.984 9.16841Z" fill="white"/>
<path fill-rule="evenodd" clip-rule="evenodd" d="M40.422 20.1317V17.8803C40.422 17.8273 40.422 17.7764 40.4199 17.7255C40.4199 17.6582 40.4178 17.591 40.4157 17.5258C40.3843 16.3482 40.1827 15.2887 39.8427 14.3434C39.828 14.2924 39.8091 14.2435 39.7902 14.1926C39.0555 12.2326 37.731 10.7881 36.1273 9.85899C35.6425 9.57579 35.1303 9.33945 34.6013 9.152C33.5518 8.77915 32.433 8.59375 31.3121 8.59375C26.7718 8.59375 22.2294 11.6906 22.2294 17.8803V20.1317H18.1929C18.1929 21.0118 18.2013 21.9613 18.2286 22.9474C18.2978 25.5614 18.493 28.4219 18.9863 30.8444C19.1312 31.5555 19.2991 32.2258 19.4985 32.8431C20.8335 36.9628 23.7155 39.6216 27.0489 40.8237C27.0489 40.8237 27.0503 40.8244 27.0531 40.8257C28.5182 41.3514 30.0715 41.6 31.6164 41.5633C36.4884 41.4533 41.3036 38.5459 43.1508 32.8431C44.2864 29.3245 44.4564 24.0252 44.4564 20.1317H40.422ZM37.5946 20.1317H25.0547V17.8803C25.0547 16.8738 25.2206 15.9855 25.5123 15.2133C26.4317 12.7847 28.6106 11.5052 30.8566 11.3545C31.0077 11.3443 31.1609 11.3382 31.3121 11.3382C32.1202 11.3382 32.9284 11.4808 33.6819 11.7681C35.5543 12.4791 37.0971 14.0744 37.4938 16.5743C37.5043 16.6334 37.5127 16.6905 37.519 16.7516C37.5694 17.1081 37.5946 17.4851 37.5946 17.8803V20.1317Z" fill="white"/>
<path fill-rule="evenodd" clip-rule="evenodd" d="M57.458 11.2607C53.157 28.6644 50.7116 38.4338 36.5933 50.7093C53.2368 40.4081 55.7767 30.1395 57.458 11.2607Z" fill="url(#paint1_linear_145_6590)"/>
<path d="M26.3244 26.9713C25.4218 28.0735 24.9453 29.4019 24.9453 30.8159C24.9453 32.2299 25.4218 33.5562 26.3244 34.6585C27.5419 36.1458 29.3618 36.9974 31.316 36.9974H31.3349C33.287 36.9974 35.1069 36.1438 36.3244 34.6585C37.227 33.5562 37.7035 32.2278 37.7035 30.8159C37.7035 29.404 37.227 28.0756 36.3244 26.9713C35.1069 25.484 33.2891 24.6323 31.3349 24.6323H31.316C29.3618 24.6323 27.5419 25.486 26.3244 26.9713ZM31.3265 27.448C32.502 27.448 33.4612 28.3771 33.4612 29.5201C33.4612 30.225 33.096 30.875 32.4852 31.2601L32.0843 31.5127L32.4558 34.1838H30.1951L30.5666 31.5127L30.1657 31.2601C29.5549 30.877 29.1896 30.225 29.1896 29.5201C29.1896 28.3771 30.1468 27.448 31.3265 27.448Z" fill="black"/>
<path d="M76.9811 13.1395H76.8678C76.6726 13.6916 76.4375 14.3456 76.1604 15.1015C75.8833 15.8574 75.602 16.6357 75.3187 17.4344C75.0332 18.233 74.7645 18.9889 74.5105 19.702L74.309 20.574C74.2188 20.8511 74.1138 21.171 73.9941 21.5336C73.8745 21.8963 73.7507 22.2671 73.6247 22.6461C73.4967 23.025 73.3728 23.3795 73.2532 23.7137C73.1335 24.0478 73.0433 24.331 72.9845 24.5633C72.8502 24.6061 72.7116 24.6468 72.5689 24.6835C72.4261 24.7202 72.2498 24.7385 72.042 24.7385C71.6831 24.7385 71.3829 24.659 71.1436 24.4981C70.9043 24.3392 70.7847 24.0988 70.7847 23.7789C70.7847 23.6342 70.8099 23.4855 70.8644 23.3327C70.9169 23.1799 70.9736 23.0087 71.0324 22.8213C71.1961 22.3282 71.406 21.7211 71.6621 21.0019C71.9161 20.2827 72.1973 19.5023 72.5038 18.6588C72.8103 17.8153 73.1335 16.9617 73.4694 16.0978C73.8052 15.2339 74.1285 14.4006 74.4349 13.602C74.7414 12.8033 75.0143 12.1045 75.2557 11.5095C75.4047 11.4362 75.6377 11.3608 75.9526 11.2813C76.2674 11.2019 76.5823 11.1611 76.8951 11.1611C77.3149 11.1611 77.699 11.2223 78.0517 11.3465C78.4043 11.4708 78.6247 11.6623 78.715 11.9252C79.0592 12.7401 79.4223 13.6733 79.8044 14.7266C80.1864 15.78 80.5747 16.8741 80.9715 18.0069C81.3682 19.1397 81.746 20.246 82.105 21.3197C82.4639 22.3955 82.7872 23.3694 83.0705 24.2414C82.9509 24.386 82.7788 24.5062 82.5542 24.602C82.3296 24.6957 82.0756 24.7446 81.7901 24.7446C81.3997 24.7446 81.1121 24.6652 80.9253 24.5042C80.7385 24.3453 80.5915 24.0967 80.4866 23.7626L79.4076 20.5801L79.16 19.5553C78.906 18.7424 78.6394 17.9356 78.3623 17.1349C78.0852 16.3362 77.8271 15.5864 77.5878 14.8896C77.3485 14.1928 77.1469 13.6101 76.9811 13.1456V13.1395ZM73.2301 21.2056L74.0613 19.374H79.9912L80.3732 21.2056H73.2301Z" fill="white"/>
<path d="M87.873 18.5669H85.5137V11.3076C85.6186 11.2791 85.7719 11.2465 85.9734 11.2098C86.1749 11.1731 86.389 11.1548 86.6136 11.1548C87.0481 11.1548 87.365 11.2302 87.5687 11.383C87.7723 11.5358 87.8709 11.8149 87.8709 12.2224V18.5669H87.873ZM85.5137 16.3217H87.873V24.3878L86.7731 24.5631C86.3995 24.5631 86.0951 24.4469 85.8642 24.2147C85.6312 23.9824 85.5158 23.6849 85.5158 23.3202V16.3217H85.5137ZM86.771 24.5631V22.6438H94.0023C94.0779 22.7314 94.1451 22.8557 94.2038 23.0146C94.2626 23.1756 94.2941 23.3569 94.2941 23.5606C94.2941 23.8805 94.2122 24.127 94.0464 24.3023C93.8806 24.4775 93.6644 24.5631 93.3957 24.5631H86.7689H86.771Z" fill="white"/>
<path d="M99.1933 18.5669H96.834V11.3076C96.9389 11.2791 97.0922 11.2465 97.2937 11.2098C97.4952 11.1731 97.7093 11.1548 97.9339 11.1548C98.3684 11.1548 98.6854 11.2302 98.889 11.383C99.0926 11.5358 99.1912 11.8149 99.1912 12.2224V18.5669H99.1933ZM96.834 16.3217H99.1933V24.3878L98.0934 24.5631C97.7198 24.5631 97.4154 24.4469 97.1845 24.2147C96.9515 23.9824 96.8361 23.6849 96.8361 23.3202V16.3217H96.834ZM98.0913 24.5631V22.6438H105.323C105.398 22.7314 105.465 22.8557 105.524 23.0146C105.583 23.1756 105.614 23.3569 105.614 23.5606C105.614 23.8805 105.533 24.127 105.367 24.3023C105.201 24.4775 104.985 24.5631 104.716 24.5631H98.0892H98.0913Z" fill="white"/>
<path d="M76.4184 40.9478H72.0166V33.3177C72.0166 33.0712 72.088 32.8776 72.2307 32.7411C72.3734 32.6046 72.5645 32.4987 72.8038 32.4253C73.2676 32.2807 73.8218 32.1747 74.4662 32.1095C75.1106 32.0443 75.7173 32.0117 76.2861 32.0117C78.232 32.0117 79.6698 32.4111 80.5976 33.2097C81.5254 34.0084 81.9893 35.0841 81.9893 36.437C81.9893 37.3518 81.7794 38.1484 81.3596 38.8249C80.9398 39.5013 80.3184 40.0229 79.4956 40.3937C78.6728 40.7645 77.6463 40.9499 76.4184 40.9499V40.9478ZM72.0166 39.9006H74.376V45.4811C74.271 45.5239 74.122 45.5646 73.9268 45.6013C73.7315 45.638 73.5216 45.6563 73.297 45.6563C72.8478 45.6563 72.5225 45.5728 72.321 45.4057C72.1195 45.2387 72.0166 44.9656 72.0166 44.5887V39.9006ZM74.3529 39.0938H76.263C77.3105 39.0938 78.1312 38.8717 78.7231 38.4296C79.3151 37.9854 79.611 37.3294 79.611 36.4574C79.611 35.5854 79.3256 34.9395 78.7567 34.5177C78.1879 34.096 77.3797 33.8861 76.3302 33.8861C75.9713 33.8861 75.6228 33.9004 75.287 33.9289C74.949 33.9575 74.6383 34.0023 74.355 34.0593V39.0958L74.3529 39.0938Z" fill="white"/>
<path d="M89.1095 34.1248H88.9983C88.8031 34.677 88.568 35.331 88.2909 36.0869C88.0138 36.8427 87.7326 37.621 87.4492 38.4197C87.1637 39.2184 86.895 39.9743 86.641 40.6874L86.4395 41.5594C86.3493 41.8365 86.2443 42.1563 86.1247 42.519C86.005 42.8817 85.8812 43.2525 85.7531 43.6314C85.6251 44.0104 85.5012 44.3649 85.3816 44.699C85.2619 45.0332 85.1717 45.3164 85.1129 45.5486C84.9786 45.5914 84.84 45.6322 84.6973 45.6688C84.5546 45.7055 84.3782 45.7239 84.1704 45.7239C83.8115 45.7239 83.5113 45.6444 83.272 45.4834C83.0327 45.3245 82.9131 45.0841 82.9131 44.7642C82.9131 44.6196 82.9383 44.4708 82.9908 44.318C83.0432 44.1652 83.0999 43.9941 83.1587 43.8066C83.3224 43.3136 83.5323 42.7064 83.7884 41.9872C84.0424 41.268 84.3237 40.4877 84.6301 39.6442C84.9366 38.8007 85.2598 37.947 85.5957 37.0832C85.9336 36.2193 86.2548 35.386 86.5613 34.5873C86.8677 33.7886 87.1406 33.0898 87.382 32.4949C87.531 32.4215 87.764 32.3462 88.0789 32.2667C88.3938 32.1872 88.7086 32.1465 89.0214 32.1465C89.4412 32.1465 89.8253 32.2076 90.178 32.3319C90.5285 32.4562 90.751 32.6477 90.8413 32.9085C91.1855 33.7234 91.5487 34.6566 91.9307 35.7099C92.3127 36.7633 92.7011 37.8574 93.0978 38.9902C93.4945 40.123 93.8723 41.2293 94.2313 42.303C94.5902 43.3788 94.9135 44.3527 95.1968 45.2247C95.0772 45.3693 94.9051 45.4896 94.6805 45.5853C94.4559 45.679 94.2019 45.7279 93.9164 45.7279C93.526 45.7279 93.2384 45.6485 93.0516 45.4875C92.8648 45.3286 92.7178 45.08 92.6129 44.7459L91.534 41.5634L91.2863 40.5386C91.0323 39.7257 90.7657 38.9189 90.4886 38.1182C90.2116 37.3195 89.9534 36.5697 89.7141 35.8729C89.4748 35.1761 89.2712 34.5934 89.1074 34.1289L89.1095 34.1248ZM85.3585 42.191L86.1897 40.3593H92.1196L92.5016 42.191H85.3585Z" fill="white"/>
<path d="M101.395 43.9551C102.338 43.9551 103.043 43.7595 103.507 43.3663C103.971 42.973 104.204 42.48 104.204 41.883C104.204 41.3594 104.023 40.9315 103.664 40.5974C103.306 40.2633 102.751 39.9943 102.002 39.7906L100.295 39.2894C99.607 39.0714 99.0046 38.8106 98.4882 38.505C97.9718 38.1994 97.5751 37.8143 97.298 37.3497C97.0209 36.8852 96.8824 36.3249 96.8824 35.6709C96.8824 34.5238 97.3211 33.6192 98.1964 32.9571C99.0717 32.2949 100.251 31.9648 101.733 31.9648C102.556 31.9648 103.295 32.0484 103.946 32.2154C104.596 32.3825 105.107 32.6046 105.474 32.8796C105.841 33.1567 106.024 33.4685 106.024 33.8169C106.024 34.0491 105.963 34.2569 105.843 34.4383C105.724 34.6196 105.566 34.7683 105.371 34.8845C105.012 34.6094 104.525 34.3731 103.91 34.1754C103.295 33.9799 102.621 33.88 101.889 33.88C101.081 33.88 100.445 34.041 99.9806 34.3588C99.5167 34.6787 99.2837 35.1147 99.2837 35.6668C99.2837 36.1028 99.4475 36.4553 99.777 36.7243C100.107 36.9932 100.623 37.2295 101.326 37.4333L102.651 37.8265C103.893 38.1749 104.863 38.6659 105.56 39.2975C106.257 39.9291 106.605 40.7909 106.605 41.881C106.605 43.0586 106.156 44.0101 105.258 44.7374C104.359 45.4648 103.087 45.8275 101.439 45.8275C100.526 45.8275 99.7203 45.7337 99.0256 45.5443C98.3287 45.3548 97.7829 45.1001 97.3862 44.7802C96.9895 44.4603 96.79 44.1181 96.79 43.7554C96.79 43.464 96.8845 43.2216 97.0713 43.026C97.2581 42.8304 97.4638 42.6817 97.6884 42.5798C98.0621 42.8997 98.5596 43.2094 99.183 43.5068C99.8043 43.8043 100.541 43.953 101.395 43.953V43.9551Z" fill="white"/>
<path d="M113.299 43.9551C114.242 43.9551 114.947 43.7595 115.411 43.3663C115.875 42.973 116.108 42.48 116.108 41.883C116.108 41.3594 115.927 40.9315 115.568 40.5974C115.209 40.2633 114.655 39.9943 113.906 39.7906L112.199 39.2894C111.511 39.0714 110.908 38.8106 110.392 38.505C109.876 38.1994 109.479 37.8143 109.202 37.3497C108.925 36.8852 108.786 36.3249 108.786 35.6709C108.786 34.5238 109.225 33.6192 110.1 32.9571C110.976 32.2949 112.155 31.9648 113.637 31.9648C114.46 31.9648 115.199 32.0484 115.85 32.2154C116.5 32.3825 117.01 32.6046 117.378 32.8796C117.745 33.1567 117.928 33.4685 117.928 33.8169C117.928 34.0491 117.867 34.2569 117.747 34.4383C117.627 34.6196 117.47 34.7683 117.275 34.8845C116.916 34.6094 116.429 34.3731 115.814 34.1754C115.199 33.9799 114.525 33.88 113.792 33.88C112.984 33.88 112.348 34.041 111.884 34.3588C111.421 34.6787 111.188 35.1147 111.188 35.6668C111.188 36.1028 111.351 36.4553 111.681 36.7243C112.01 36.9932 112.527 37.2295 113.23 37.4333L114.554 37.8265C115.797 38.1749 116.767 38.6659 117.464 39.2975C118.161 39.9291 118.509 40.7909 118.509 41.881C118.509 43.0586 118.06 44.0101 117.161 44.7374C116.263 45.4648 114.991 45.8275 113.343 45.8275C112.43 45.8275 111.624 45.7337 110.929 45.5443C110.232 45.3548 109.687 45.1001 109.29 44.7802C108.893 44.4603 108.694 44.1181 108.694 43.7554C108.694 43.464 108.788 43.2216 108.975 43.026C109.162 42.8304 109.368 42.6817 109.592 42.5798C109.966 42.8997 110.463 43.2094 111.087 43.5068C111.708 43.8043 112.445 43.953 113.299 43.953V43.9551Z" fill="white"/>
<path d="M128.19 39.5523H125.831V32.2929C125.936 32.2644 126.089 32.2318 126.29 32.1951C126.492 32.1585 126.706 32.1401 126.93 32.1401C127.365 32.1401 127.682 32.2176 127.886 32.3683C128.089 32.5191 128.188 32.8003 128.188 33.2077V39.5523H128.19ZM125.831 37.197H128.19V45.4812C128.085 45.524 127.936 45.5647 127.741 45.6014C127.546 45.638 127.336 45.6564 127.111 45.6564C126.662 45.6564 126.336 45.5729 126.133 45.4058C125.929 45.2387 125.831 44.9657 125.831 44.5888V37.1991V37.197ZM135.826 39.7703H127.09V37.8958H135.826V39.7703ZM136.905 39.5523H134.525V32.2929C134.63 32.2644 134.783 32.2318 134.985 32.1951C135.186 32.1585 135.4 32.1401 135.625 32.1401C136.059 32.1401 136.38 32.2196 136.59 32.3806C136.8 32.5415 136.905 32.8166 136.905 33.2098V39.5543V39.5523ZM134.525 37.197H136.905V45.4812C136.786 45.524 136.628 45.5647 136.433 45.6014C136.238 45.638 136.028 45.6564 135.803 45.6564C135.354 45.6564 135.029 45.5729 134.827 45.4058C134.626 45.2387 134.525 44.9657 134.525 44.5888V37.1991V37.197Z" fill="white"/>
<path d="M142.947 40.0311H140.587V32.291C140.692 32.2625 140.85 32.2299 141.06 32.1932C141.27 32.1565 141.48 32.1382 141.689 32.1382C142.124 32.1382 142.441 32.2156 142.644 32.3664C142.846 32.5192 142.949 32.7983 142.949 33.2058V40.0291L142.947 40.0311ZM146.091 45.8296C144.939 45.8296 143.95 45.6259 143.127 45.2184C142.304 44.8109 141.675 44.2343 141.24 43.4846C140.806 42.7368 140.59 41.8689 140.59 40.8787V39.1999H142.949V40.7483C142.949 41.7956 143.249 42.5861 143.847 43.124C144.445 43.6618 145.195 43.9308 146.093 43.9308C146.992 43.9308 147.741 43.6618 148.339 43.124C148.938 42.5861 149.238 41.7935 149.238 40.7483V39.1999H151.595V40.8787C151.595 41.8669 151.381 42.7348 150.955 43.4846C150.529 44.2323 149.903 44.8109 149.08 45.2184C148.257 45.6259 147.26 45.8296 146.093 45.8296H146.091ZM151.593 40.0311H149.236V32.291C149.341 32.2625 149.494 32.2299 149.695 32.1932C149.897 32.1565 150.111 32.1382 150.335 32.1382C150.77 32.1382 151.087 32.2156 151.291 32.3664C151.494 32.5171 151.593 32.7983 151.593 33.2058V40.0291V40.0311Z" fill="white"/>
<path d="M160.352 39.5523L160.912 38.2219C162.006 38.2219 162.915 38.3787 163.641 38.6905C164.367 39.0042 164.909 39.428 165.27 39.9659C165.629 40.5038 165.81 41.115 165.81 41.7975C165.81 43.1483 165.304 44.1528 164.294 44.8068C163.284 45.4608 161.842 45.7888 159.97 45.7888C159.579 45.7888 159.176 45.7787 158.757 45.7562C158.337 45.7338 157.917 45.691 157.499 45.6258C157.079 45.5607 156.683 45.4771 156.309 45.3752C155.635 45.1715 155.297 44.7864 155.297 44.22V33.3198C155.297 33.0733 155.369 32.8777 155.511 32.731C155.654 32.5864 155.845 32.4845 156.085 32.4254C156.592 32.2665 157.163 32.1565 157.791 32.0974C158.421 32.0403 159.078 32.0098 159.768 32.0098C161.521 32.0098 162.879 32.3113 163.845 32.9144C164.81 33.5175 165.293 34.4302 165.293 35.6506C165.293 36.2904 165.121 36.8649 164.777 37.3723C164.433 37.8816 163.901 38.285 163.181 38.5825C162.464 38.8799 161.534 39.0287 160.396 39.0287L160.194 37.8083C161.093 37.8083 161.771 37.631 162.226 37.2745C162.682 36.9179 162.911 36.4126 162.911 35.7586C162.911 35.1046 162.648 34.636 162.124 34.308C161.599 33.982 160.82 33.817 159.787 33.817C159.353 33.817 158.952 33.8353 158.587 33.872C158.219 33.9086 157.894 33.9474 157.611 33.9922V43.7372C157.925 43.8105 158.303 43.8655 158.744 43.9002C159.185 43.9368 159.615 43.9552 160.035 43.9552C161.114 43.9552 161.943 43.7738 162.529 43.4112C163.112 43.0485 163.404 42.4882 163.404 41.7323C163.404 41.0498 163.146 40.516 162.629 40.1309C162.113 39.7459 161.353 39.5523 160.35 39.5523H160.352ZM162.642 37.8083V39.5523H156.846V37.8083H162.642Z" fill="white"/>
<defs>
<linearGradient id="paint0_linear_145_6590" x1="0" y1="29.999" x2="62.6489" y2="29.999" gradientUnits="userSpaceOnUse">
<stop stop-color="#FFF33B"/>
<stop offset="0.04" stop-color="#FEE62D"/>
<stop offset="0.12" stop-color="#FDD51B"/>
<stop offset="0.2" stop-color="#FDCA0F"/>
<stop offset="0.28" stop-color="#FDC70C"/>
<stop offset="0.67" stop-color="#F3903F"/>
<stop offset="0.89" stop-color="#ED683C"/>
<stop offset="1" stop-color="#E93E3A"/>
</linearGradient>
<linearGradient id="paint1_linear_145_6590" x1="73.3312" y1="6.41372" x2="17.9034" y2="63.5188" gradientUnits="userSpaceOnUse">
<stop stop-color="#FFF33B"/>
<stop offset="0.04" stop-color="#FEE62D"/>
<stop offset="0.12" stop-color="#FDD51B"/>
<stop offset="0.2" stop-color="#FDCA0F"/>
<stop offset="0.28" stop-color="#FDC70C"/>
<stop offset="0.67" stop-color="#F3903F"/>
<stop offset="0.89" stop-color="#ED683C"/>
<stop offset="1" stop-color="#E93E3A"/>
</linearGradient>
</defs>
</svg>
